<svg id="Layer_1" data-name="Layer 1" xmlns="http://www.w3.org/2000/svg" viewBox="0 0 1410.39 229.49"><title>bioconda_monochrome</title><path d="M549.88,25.07c25.91,0,44.64,8.21,62.08,23.86a4.77,4.77,0,0,1,.26,7.18L596.57,72.27c-1.8,2.05-4.36,2.05-6.41,0a60.69,60.69,0,0,0-39.51-15.14c-32.84,0-57.21,27.45-57.21,59.78,0,32.07,24.63,59.26,57.47,59.26,15.39,0,28.48-5.9,39.25-14.62a4.73,4.73,0,0,1,6.41,0L612.47,178c2.05,1.8,1.54,5.13-.26,6.93-17.45,16.93-39.51,24.88-62.34,24.88-51.31,0-92.61-40.79-92.61-92.1A92.41,92.41,0,0,1,549.88,25.07Z"/><path d="M724.33,25.07a92.36,92.36,0,1,1-92.1,92.61C632.23,66.37,673,25.07,724.33,25.07Zm0,151.36c32.32,0,59-26.42,59-58.75s-26.68-59.26-59-59.26-58.75,26.94-58.75,59.26A58.91,58.91,0,0,0,724.33,176.43Z"/><path d="M850.3,29.69a4.82,4.82,0,0,1,4.87-4.62h6.41L968.31,138.46h0.26v-106a4.87,4.87,0,0,1,4.87-4.87H997a5,5,0,0,1,4.87,4.87V205.16a4.82,4.82,0,0,1-4.87,4.62h-6.16L883.65,92h-0.26V202.34a4.87,4.87,0,0,1-4.87,4.87H855.17a5,5,0,0,1-4.87-4.87V29.69Z"/><path d="M1048.61,32.51a4.82,4.82,0,0,1,4.62-4.87H1114c49.51,0,90,40.28,90,89.53a90.16,90.16,0,0,1-90,90h-60.8a4.82,4.82,0,0,1-4.62-4.87V32.51ZM1111,175.92c33.35,0,57.72-25.14,57.72-58.75,0-33.35-24.37-58.49-57.72-58.49h-29.25V175.92H1111Z"/><path d="M1213.06,200.55l79.79-172.66a4.61,4.61,0,0,1,4.36-2.82h2.56a4.36,4.36,0,0,1,4.36,2.82l79,172.66c1.54,3.33-.51,6.67-4.36,6.67h-22.32c-3.85,0-5.64-1.54-7.44-5.13l-12.57-27.71h-76.71l-12.57,27.71a7.73,7.73,0,0,1-7.44,5.13h-22.32C1213.57,207.22,1211.52,203.88,1213.06,200.55Zm110.83-54.64-25.66-56.44h-0.77l-25.14,56.44h51.57Z"/><path d="M26.35,32.51a4.87,4.87,0,0,1,4.87-4.87H90c30.53,0,54.13,20.52,54.13,47.46,0,19.75-16.16,35.15-28.22,40.79,13.6,4.36,33.35,18.21,33.35,41.82,0,28.73-24.63,49.51-55.93,49.51H31.22a4.87,4.87,0,0,1-4.87-4.87V32.51Zm60.54,70.55C100,103.06,109,92.8,109,80s-9-21.81-22.06-21.81H59.44v44.9H86.89Zm3.59,73.89a22.89,22.89,0,0,0,23.09-23.35c0-12.83-12.83-22.32-26.17-22.32h-28v45.67h31Z"/><path d="M184.64,32.51a5,5,0,0,1,4.87-4.87h23.86a5,5,0,0,1,4.87,4.87V202.34a5,5,0,0,1-4.87,4.87H189.51a5,5,0,0,1-4.87-4.87V32.51Z"/><path d="M266.35,153.69a31.78,31.78,0,0,0-1.3,7.17c0,0.1,0,.18,0,0.27l24.79-14.4c-1.57-.55-3.25-1-5-1.41l-3.32-.79-14.12,6.12C267,151.69,266.64,152.71,266.35,153.69Z"/><path d="M308.43,65.56a45.1,45.1,0,0,0-6.82-3.05q0.13,1.71.3,3.46c0.24,2.43.6,4.92,0.8,7.69,0,0.67.08,1.36,0.09,2.06a59.84,59.84,0,0,1,9.7-7.91C311,67,309.75,66.25,308.43,65.56Z"/><path d="M270.55,137.54c0.36-.48.71-1,1.07-1.43,0.91-1.18,1.86-2.34,2.81-3.49l-10.75,2c1,0.53,2,1,3,1.44C268,136.63,269.28,137.11,270.55,137.54Z"/><path d="M280.32,144.24l-2.18-.52c-2-.49-3.95-1-5.93-1.57-0.62.85-1.21,1.68-1.73,2.52a38.22,38.22,0,0,0-2.64,5Z"/><path d="M266.77,80.72a25.4,25.4,0,0,0,1.51,3.9l10.42,4.63,0.38-.1c2.23-.56,4.45-1,6.58-1.52l2.08-.49L265.87,73.51A21,21,0,0,0,266.77,80.72Z"/><path d="M313.78,32.24a14.13,14.13,0,0,0-5.19,2.87,16.11,16.11,0,0,0-1.44,1.43l11,27a8.65,8.65,0,0,0,1.31.3q1.7-.81,3.46-1.5L313.8,32.23h0Z"/><path d="M278.12,94.71l-2.67.69c1.29,1.59,2.61,3.14,4,4.67,1.78,2,3.64,3.92,5.45,6.15a22.69,22.69,0,0,1,1.38,1.88,59,59,0,0,1,5.23-16.44c-1.76.52-3.47,0.85-5.13,1.22C283.57,93.46,280.84,94,278.12,94.71Z"/><path d="M301.38,52.43c0,1-.06,2.05-0.06,3.14,0,0.11,0,.21,0,0.32,1.63,0.49,3.23,1.07,4.81,1.71l-4.48-8.06C301.53,50.47,301.47,51.44,301.38,52.43Z"/><path d="M304.75,39.87a24.13,24.13,0,0,0-2.27,6l-0.19.65-0.21.69,6.33,11.4c0.82,0.38,1.63.78,2.42,1.21,1.93,1,3.75,2.1,5.42,2.93L306.07,37.86A19.2,19.2,0,0,0,304.75,39.87Z"/><path d="M268.73,170.65q2.09,3,4.4,5.78c0.6,0.27,1.22.52,1.85,0.73l22.31-20.8a18.11,18.11,0,0,0-.17-2.63,6,6,0,0,0-.58-2l0,0Z"/><path d="M262.32,133.85l13.13-2.43,0.63-.75,4.57-5.25q0.47-.55.91-1.1L254.05,127a24.44,24.44,0,0,0,2.09,2.27A34.53,34.53,0,0,0,262.32,133.85Z"/><path d="M318.7,170.41c-0.65.16-1.32,0.34-2,.57l-11.72,28.43a14.86,14.86,0,0,0,2.75,2.83q2.39,1,4.85,1.91l10.81-31.73C321.76,171.81,320.21,171.14,318.7,170.41Z"/><path d="M297.24,158.51c0-.37,0-0.73,0-1.1l-21.49,20,0.22,0.07a28.76,28.76,0,0,0,5.57,1,35.29,35.29,0,0,0,3.87,0l11-11c0.1-1.37.22-2.76,0.35-4.18S297.15,160.11,297.24,158.51Z"/><path d="M286.6,178.41a43.87,43.87,0,0,0,5.75-.84c1.44-.3,2.83-0.68,4.19-1.09h0c-0.12-1.33-.22-2.75-0.21-4.2,0-1.21,0-2.45.12-3.71Z"/><path d="M278.28,59.35L297.22,76c0-2.51-.5-5.24-0.8-7.87,0-.14,0-0.28,0-0.43l-7.64-8.23A33.58,33.58,0,0,0,278.28,59.35Z"/><path d="M290.09,143.16c0.54,0.18,1.08.38,1.62,0.6a58.19,58.19,0,0,1-5.64-18c-1.08,1.46-2.22,2.7-3.3,3.92-1.64,1.81-3.21,3.51-4.68,5.21-1.18,1.35-2.28,2.68-3.35,4l2.12,0.61c3.08,0.86,5.74,1.51,7.87,2.08A37.3,37.3,0,0,1,290.09,143.16Z"/><path d="M295.7,60.83l-0.7-.19-0.81-.21-0.5-.13-0.07,0-0.29-.06c-0.46-.1-0.93-0.17-1.4-0.26s-0.81-.13-1.22-0.2l5.4,5.81q-0.26-2.43-.42-4.74h0Z"/><path d="M284.09,120.24a7.66,7.66,0,0,0,.43-2.31l-32.36,1.16c0,1.88.11,3.75,0.25,5.6,0.3,0.48.61,0.95,0.94,1.4l29-2.84A13.4,13.4,0,0,0,284.09,120.24Z"/><path d="M303.42,197.07a17.75,17.75,0,0,0,1.16,1.88L316,171.2l-0.67.23c-2,.71-4.23,1.7-6.78,2.8l-8.21,13.45c0.07,0.37.13,0.75,0.21,1.12A31.49,31.49,0,0,0,303.42,197.07Z"/><path d="M291.53,86A8.32,8.32,0,0,0,294,84.48l-25.5-18.93a11.52,11.52,0,0,0-1,1.73,14.68,14.68,0,0,0-1.5,4.82L289.39,86.7C290.15,86.48,290.87,86.26,291.53,86Z"/><path d="M330.81,37.28A28.45,28.45,0,0,0,324.43,33l5.51,24.57q0.57-.88,1.14-1.79c1-1.64,2.08-3.29,3.17-4.94l-1.81-12.07C331.9,38.27,331.37,37.76,330.81,37.28Z"/><path d="M301.83,174.75c5.88-2.06,10.8-4.22,15-5.21l0.13,0a59.3,59.3,0,0,1-16.56-13c0,1.45-.16,2.85-0.29,4.21L299.39,167c-0.21,2-.37,4-0.39,5.89,0,0.92,0,1.86.07,2.8Z"/><path d="M300.23,186.95l7.55-12.38c-2.53,1.09-5.37,2.28-8.59,3.44,0,0.17,0,.34,0,0.51A82.71,82.71,0,0,0,300.23,186.95Z"/><path d="M344.24,24.92a93.4,93.4,0,0,0-18.56,1.85,23.37,23.37,0,0,1,2.39,1.08,35.9,35.9,0,0,1,6.61,4.56,74,74,0,0,1,5.57,5.3l2.52,2.7,2.56,2.67a1.83,1.83,0,0,1,.17.55,4.63,4.63,0,0,1-.35,2.54,2.38,2.38,0,0,1-.52.66,0.49,0.49,0,0,1-.12.39,121.3,121.3,0,0,0-8,11.58,57.58,57.58,0,0,1,7.71-.53c32.32,0,59,26.94,59,59.26s-26.68,58.75-59,58.75a58.25,58.25,0,0,1-20.43-3.69L313,204.31a93.32,93.32,0,0,0,31.23,5.33A92.36,92.36,0,1,0,344.24,24.92Z"/><path d="M299.86,193.64a57.39,57.39,0,0,1-2.93-13.25c-0.07-.5-0.12-1-0.17-1.53-0.75.25-1.51,0.5-2.3,0.74A39.7,39.7,0,0,1,278,181l-1-.18a91.22,91.22,0,0,0,26.71,19.64A24.44,24.44,0,0,1,299.86,193.64Z"/><path d="M338.45,44.9l-0.17-.18-2.46-2.65c-0.53-.55-1.07-1.08-1.6-1.61L335.5,49Q336.92,46.91,338.45,44.9Z"/><path d="M279.36,53.38a35.55,35.55,0,0,1,5.1-.19,64.12,64.12,0,0,1,8.67,1l1,0.16,0.66,0.12,0.17,0,0.32,0,0.23,0,0-1.51c0-.77.06-1.53,0.12-2.28s0.08-1.47.2-2.18l0.26-1.78,0-.19,0-.34,0.08-.54,0.07-.45a29.53,29.53,0,0,1,3.41-8.92A91.63,91.63,0,0,0,277.3,53.69C278,53.56,278.69,53.45,279.36,53.38Z"/><path d="M322.74,32.31a13.27,13.27,0,0,0-3-.67,14.72,14.72,0,0,0-4.46.24l9.11,29.95c1.07-.39,2.15-0.75,3.25-1.08,0.4-.46.79-1,1.17-1.49Z"/><path d="M275.79,103.32c-1.2-1.3-2.39-2.61-3.53-4-0.68-.8-1.34-1.6-2-2.41l-0.15,0a36.74,36.74,0,0,0-7.7,3.68Z"/><path d="M256.69,105.23a28.33,28.33,0,0,0-2.4,2.72l28.36,3.3a18.21,18.21,0,0,0-1.26-1.79c-1.33-1.63-2.9-3.24-4.44-4.88l-15.73-3.09A32.77,32.77,0,0,0,256.69,105.23Z"/><path d="M272.11,91.06l0.21-.07c1.48-.45,3-0.86,4.43-1.25l-7.57-3.37c0.21,0.39.42,0.78,0.64,1.17A37.22,37.22,0,0,0,272.11,91.06Z"/><path d="M296.1,151.09c-0.25-.36-0.51-0.72-0.75-1.09a11.37,11.37,0,0,0-4.24-2.8l-0.37-.14L265,162c0,0.49,0,.95,0,1.34a14.2,14.2,0,0,0,.12,1.66v0.11q1.5,2.51,3.15,4.91Z"/><path d="M271.52,62.35c-0.4.34-.78,0.71-1.18,1.06l-1,1.15,25.6,19c0.1-.13.2-0.26,0.29-0.4a11.25,11.25,0,0,0,1.87-4.54c0.05-.33.09-0.67,0.11-1l-20.4-17.9A14.28,14.28,0,0,0,271.52,62.35Z"/><path d="M262.15,154.87a40.55,40.55,0,0,1,5.34-13c0.22-.33.45-0.64,0.67-1-1.28-.45-2.57-0.93-3.83-1.46a40.71,40.71,0,0,1-11-7,91.85,91.85,0,0,0,8.25,26.08A33.46,33.46,0,0,1,262.15,154.87Z"/><path d="M252.15,118.08l32.34-1.15c0-.27-0.05-0.55-0.07-0.82-0.07-.49-0.17-1-0.26-1.46a11.15,11.15,0,0,0-.9-2.33l-29.64-3.45q-0.67.95-1.23,1.93-0.23,3.34-.24,6.74C252.14,117.72,252.14,117.9,252.15,118.08Z"/><path d="M258.88,97.19a39.93,39.93,0,0,1,6.57-3.69l1.64-.71a41.55,41.55,0,0,1-2.83-4.59,35.61,35.61,0,0,1-2.67-6.36,32.72,32.72,0,0,1-.82-3.71,92.68,92.68,0,0,0-7.31,23.59A36.79,36.79,0,0,1,258.88,97.19Z"/><path d="M1365.65,25.12a15.09,15.09,0,1,1-15.07,15.11A15.16,15.16,0,0,1,1365.65,25.12Zm0,26.91a11.8,11.8,0,1,0-11.79-11.8A11.78,11.78,0,0,0,1365.65,52ZM1360,33.31a0.8,0.8,0,0,1,.8-0.8h6.51a5.08,5.08,0,0,1,5.16,5.21,4.87,4.87,0,0,1-3,4.66l1.93,4.37a0.78,0.78,0,0,1-.71,1.13h-2.27a0.91,0.91,0,0,1-.75-0.59l-1.85-4.7h-2.18v4.49a0.8,0.8,0,0,1-.8.8h-2.06a0.8,0.8,0,0,1-.8-0.8V33.31Zm6.84,6.17a1.68,1.68,0,0,0,1.72-1.72,1.65,1.65,0,0,0-1.72-1.72h-3.32v3.44h3.32Z"/></svg>