<svg id="Layer_1" data-name="Layer 1" xmlns="http://www.w3.org/2000/svg" viewBox="0 0 187.09 187.09"><defs><style>.cls-1{fill:#050;}</style></defs><title>bioconda_circular</title><path class="cls-1" d="M15.52,130a31.78,31.78,0,0,0-1.3,7.17c0,0.1,0,.18,0,0.27L39,123c-1.57-.55-3.25-1-5-1.41l-3.32-.79L16.6,126.91C16.17,128,15.82,129,15.52,130Z"/><path class="cls-1" d="M57.61,41.82a45.1,45.1,0,0,0-6.82-3.05q0.13,1.71.3,3.46c0.24,2.43.6,4.92,0.8,7.69,0,0.67.08,1.36,0.09,2.06a59.84,59.84,0,0,1,9.7-7.91C60.22,43.31,58.92,42.51,57.61,41.82Z"/><path class="cls-1" d="M19.72,113.81c0.36-.48.71-1,1.07-1.43,0.91-1.18,1.86-2.34,2.81-3.49l-10.75,2c1,0.53,2,1,3,1.44C17.17,112.9,18.46,113.37,19.72,113.81Z"/><path class="cls-1" d="M29.5,120.5L27.32,120c-2-.49-3.95-1-5.93-1.57-0.62.85-1.21,1.68-1.73,2.52a38.22,38.22,0,0,0-2.64,5Z"/><path class="cls-1" d="M16,57a25.4,25.4,0,0,0,1.51,3.9l10.42,4.63,0.38-.1c2.23-.56,4.45-1,6.58-1.52l2.08-.49L15,49.77A21,21,0,0,0,16,57Z"/><path class="cls-1" d="M63,8.5a14.13,14.13,0,0,0-5.19,2.87,16.11,16.11,0,0,0-1.44,1.43l11,27a8.65,8.65,0,0,0,1.31.3q1.7-.81,3.46-1.5L63,8.5h0Z"/><path class="cls-1" d="M27.3,71l-2.67.69c1.29,1.59,2.61,3.14,4,4.67,1.78,2,3.64,3.92,5.45,6.15a22.69,22.69,0,0,1,1.38,1.88,59,59,0,0,1,5.23-16.44c-1.76.52-3.47,0.85-5.13,1.22C32.75,69.72,30,70.29,27.3,71Z"/><path class="cls-1" d="M50.55,28.69c0,1-.06,2.05-0.06,3.14,0,0.11,0,.21,0,0.32,1.63,0.49,3.23,1.07,4.81,1.71l-4.48-8.06C50.71,26.73,50.65,27.7,50.55,28.69Z"/><path class="cls-1" d="M53.93,16.14a24.13,24.13,0,0,0-2.27,6l-0.19.65-0.21.69,6.33,11.4c0.82,0.38,1.63.78,2.42,1.21,1.93,1,3.75,2.1,5.42,2.93L55.25,14.12A19.2,19.2,0,0,0,53.93,16.14Z"/><path class="cls-1" d="M17.91,146.91q2.09,3,4.4,5.78c0.6,0.27,1.22.52,1.85,0.73l22.31-20.8A18.11,18.11,0,0,0,46.3,130a6,6,0,0,0-.58-2l0,0Z"/><path class="cls-1" d="M11.49,110.11l13.13-2.43,0.63-.75,4.57-5.25q0.47-.55.91-1.1L3.23,103.27a24.44,24.44,0,0,0,2.09,2.27A34.53,34.53,0,0,0,11.49,110.11Z"/><path class="cls-1" d="M67.87,146.67c-0.65.16-1.32,0.34-2,.57L54.11,175.67a14.86,14.86,0,0,0,2.75,2.83q2.39,1,4.85,1.91l10.81-31.73C70.94,148.07,69.39,147.41,67.87,146.67Z"/><path class="cls-1" d="M46.41,134.77c0-.37,0-0.73,0-1.1L25,153.69l0.22,0.07a28.76,28.76,0,0,0,5.57,1,35.29,35.29,0,0,0,3.87,0l11-11c0.1-1.37.22-2.76,0.35-4.18S46.33,136.37,46.41,134.77Z"/><path class="cls-1" d="M35.77,154.67a43.87,43.87,0,0,0,5.75-.84c1.44-.3,2.83-0.68,4.19-1.09h0c-0.12-1.33-.22-2.75-0.21-4.2,0-1.21,0-2.45.12-3.71Z"/><path class="cls-1" d="M27.45,35.62L46.4,52.24c0-2.51-.5-5.24-0.8-7.87,0-.14,0-0.28,0-0.43L37.9,35.71A33.58,33.58,0,0,0,27.45,35.62Z"/><path class="cls-1" d="M39.27,119.42c0.54,0.18,1.08.38,1.62,0.6a58.19,58.19,0,0,1-5.64-18c-1.08,1.46-2.22,2.7-3.3,3.92-1.64,1.81-3.21,3.51-4.68,5.21-1.18,1.35-2.28,2.68-3.35,4L26,115.74c3.08,0.86,5.74,1.51,7.87,2.08A37.3,37.3,0,0,1,39.27,119.42Z"/><path class="cls-1" d="M44.88,37.1l-0.7-.19-0.81-.21-0.5-.13-0.07,0-0.29-.06c-0.46-.1-0.93-0.17-1.4-0.26s-0.81-.13-1.22-0.2l5.4,5.81Q45,39.41,44.89,37.1h0Z"/><path class="cls-1" d="M33.27,96.5a7.66,7.66,0,0,0,.43-2.31L1.33,95.34c0,1.88.11,3.75,0.25,5.6,0.3,0.48.61,0.95,0.94,1.4l29-2.84A13.4,13.4,0,0,0,33.27,96.5Z"/><path class="cls-1" d="M52.6,173.33a17.75,17.75,0,0,0,1.16,1.88L65.2,147.46l-0.67.23c-2,.71-4.23,1.7-6.78,2.8l-8.21,13.45c0.07,0.37.13,0.75,0.21,1.12A31.49,31.49,0,0,0,52.6,173.33Z"/><path class="cls-1" d="M40.71,62.26a8.32,8.32,0,0,0,2.52-1.51L17.72,41.82a11.52,11.52,0,0,0-1,1.73,14.68,14.68,0,0,0-1.5,4.82L38.57,63C39.32,62.75,40,62.52,40.71,62.26Z"/><path class="cls-1" d="M80,13.54a28.45,28.45,0,0,0-6.38-4.28l5.51,24.57Q79.69,33,80.27,32c1-1.64,2.08-3.29,3.17-4.94L81.62,15C81.08,14.53,80.54,14,80,13.54Z"/><path class="cls-1" d="M51,151c5.88-2.06,10.8-4.22,15-5.21l0.13,0a59.3,59.3,0,0,1-16.56-13c0,1.45-.16,2.85-0.29,4.21l-0.71,6.27c-0.21,2-.37,4-0.39,5.89,0,0.92,0,1.86.07,2.8Z"/><path class="cls-1" d="M49.41,163.21L57,150.83c-2.53,1.09-5.37,2.28-8.59,3.44,0,0.17,0,.34,0,0.51A82.71,82.71,0,0,0,49.41,163.21Z"/><path class="cls-1" d="M93.42,1.19A93.4,93.4,0,0,0,74.85,3a23.37,23.37,0,0,1,2.39,1.08,35.9,35.9,0,0,1,6.61,4.56A74,74,0,0,1,89.43,14l2.52,2.7,2.56,2.67a1.83,1.83,0,0,1,.17.55,4.63,4.63,0,0,1-.35,2.54,2.38,2.38,0,0,1-.52.66,0.49,0.49,0,0,1-.12.39,121.3,121.3,0,0,0-8,11.58,57.58,57.58,0,0,1,7.71-.53c32.32,0,59,26.94,59,59.26s-26.68,58.75-59,58.75A58.25,58.25,0,0,1,73,148.86l-10.8,31.72a93.32,93.32,0,0,0,31.23,5.33A92.36,92.36,0,1,0,93.42,1.19Z"/><path class="cls-1" d="M49,169.9a57.39,57.39,0,0,1-2.93-13.25c-0.07-.5-0.12-1-0.17-1.53-0.75.25-1.51,0.5-2.3,0.74a39.7,39.7,0,0,1-16.46,1.36l-1-.18a91.22,91.22,0,0,0,26.71,19.64A24.44,24.44,0,0,1,49,169.9Z"/><path class="cls-1" d="M87.63,21.17L87.46,21,85,18.34c-0.53-.55-1.07-1.08-1.6-1.61l1.28,8.53Q86.1,23.18,87.63,21.17Z"/><path class="cls-1" d="M28.54,29.64a35.55,35.55,0,0,1,5.1-.19,64.12,64.12,0,0,1,8.67,1l1,0.16,0.66,0.12,0.17,0,0.32,0,0.23,0,0-1.51c0-.77.06-1.53,0.12-2.28s0.08-1.47.2-2.18L45.23,23l0-.19,0-.34L45.36,22l0.07-.45a29.53,29.53,0,0,1,3.41-8.92A91.63,91.63,0,0,0,26.48,30C27.17,29.82,27.86,29.71,28.54,29.64Z"/><path class="cls-1" d="M71.92,8.57a13.27,13.27,0,0,0-3-.67,14.72,14.72,0,0,0-4.46.24l9.11,29.95c1.07-.39,2.15-0.75,3.25-1.08,0.4-.46.79-1,1.17-1.49Z"/><path class="cls-1" d="M25,79.59c-1.2-1.3-2.39-2.61-3.53-4-0.68-.8-1.34-1.6-2-2.41l-0.15,0A36.74,36.74,0,0,0,11.59,77Z"/><path class="cls-1" d="M5.86,81.49a28.33,28.33,0,0,0-2.4,2.72l28.36,3.3a18.21,18.21,0,0,0-1.26-1.79c-1.33-1.63-2.9-3.24-4.44-4.88L10.38,77.74A32.77,32.77,0,0,0,5.86,81.49Z"/><path class="cls-1" d="M21.29,67.33l0.21-.07c1.48-.45,3-0.86,4.43-1.25l-7.57-3.37c0.21,0.39.42,0.78,0.64,1.17A37.22,37.22,0,0,0,21.29,67.33Z"/><path class="cls-1" d="M45.27,127.35c-0.25-.36-0.51-0.72-0.75-1.09a11.37,11.37,0,0,0-4.24-2.8l-0.37-.14L14.18,138.27c0,0.49,0,.95,0,1.34a14.2,14.2,0,0,0,.12,1.66v0.11q1.5,2.51,3.15,4.91Z"/><path class="cls-1" d="M20.7,38.61c-0.4.34-.78,0.71-1.18,1.06l-1,1.15,25.6,19c0.1-.13.2-0.26,0.29-0.4a11.25,11.25,0,0,0,1.87-4.54c0.05-.33.09-0.67,0.11-1L25.95,36A14.28,14.28,0,0,0,20.7,38.61Z"/><path class="cls-1" d="M11.32,131.14a40.55,40.55,0,0,1,5.34-13c0.22-.33.45-0.64,0.67-1-1.28-.45-2.57-0.93-3.83-1.46a40.71,40.71,0,0,1-11-7,91.85,91.85,0,0,0,8.25,26.08A33.46,33.46,0,0,1,11.32,131.14Z"/><path class="cls-1" d="M1.32,94.34l32.34-1.15c0-.27-0.05-0.55-0.07-0.82-0.07-.49-0.17-1-0.26-1.46a11.15,11.15,0,0,0-.9-2.33L2.79,85.13q-0.67.95-1.23,1.93Q1.32,90.4,1.32,93.8C1.32,94,1.32,94.16,1.32,94.34Z"/><path class="cls-1" d="M8.06,73.45a39.93,39.93,0,0,1,6.57-3.69L16.27,69a41.55,41.55,0,0,1-2.83-4.59,35.61,35.61,0,0,1-2.67-6.36,32.72,32.72,0,0,1-.82-3.71A92.68,92.68,0,0,0,2.64,78,36.79,36.79,0,0,1,8.06,73.45Z"/></svg>